<?xml version="1.0" encoding="utf-8"?>
<!-- Generator: Adobe Illustrator 23.0.2, SVG Export Plug-In . SVG Version: 6.00 Build 0)  -->
<svg version="1.1" id="Layer_1" xmlns="http://www.w3.org/2000/svg" xmlns:xlink="http://www.w3.org/1999/xlink" x="0px" y="0px" viewBox="0 0 98.1 118" style="enable-background:new 0 0 98.1 118;" xml:space="preserve">
  <style type="text/css">
    .blue {
      fill: #07d2f5;
    }

    .green {
      fill: #7ce95d;
    }
  </style>
  <g>
    <g>
      <g>
        <path class="blue" d="M207.63,86.74h-32.85c-5.03,0-9.44-3.79-9.75-8.82c-0.33-5.45,4-9.98,9.38-9.98h32.58
                c14.48,0,26.16-11.86,25.16-26.3c-0.89-12.75-11.54-22.85-24.52-22.85h-32.85c-5.03,0-9.44-3.79-9.75-8.82
                c-0.33-5.45,4-9.98,9.38-9.98l32.36,0c25.24,0,45.58,20.66,44.15,45.85C249.64,68.61,230.71,86.74,207.63,86.74z" />
      </g>
    </g>
    <path class="green" d="M188.84,52.04h-47.16c-4.77,0-8.67-3.9-8.67-8.67v0c0-4.77,3.9-8.67,8.67-8.67h47.16
        c4.77,0,8.67,3.9,8.67,8.67v0C197.51,48.14,193.61,52.04,188.84,52.04z" />
    <g>
      <path class="green" d="M43.37,86.74h32.85c5.03,0,9.44-3.79,9.75-8.82c0.33-5.45-4-9.98-9.38-9.98H44.01
            c-14.48,0-26.16-11.86-25.16-26.3c0.89-12.75,11.54-22.85,24.52-22.85h32.85c5.03,0,9.44-3.79,9.75-8.82
            c0.33-5.45-4-9.98-9.38-9.98L44.22,0C18.99,0-1.36,20.66,0.07,45.85C1.36,68.61,20.29,86.74,43.37,86.74z" />
    </g>
    <path class="blue" d="M62.16,52.04h47.16c4.77,0,8.67-3.9,8.67-8.67v0c0-4.77-3.9-8.67-8.67-8.67H62.16c-4.77,0-8.67,3.9-8.67,8.67
        v0C53.49,48.14,57.39,52.04,62.16,52.04z" />
  </g>
</svg>
